:SAMPLES-PER-SECOND 30
:FULLY-SPECIFIED
:DEGREES
886
root  -63.0135 40.9871 30.6687 -167.337 -11.3486 179.473
RightUpLeg  -23.0512 -7.44412 -3.1268
RightLeg  4.82402 -12.8871 4.5705
RightFoot  5.89955 0.510102 -3.09556
RightToes  0.00048216 0.542163 -0.142577
Spine  42.9056 -1.31193 16.5252
Spine1  17.0821 8.53953 -7.89277
HEad  -25.2187 -25.0411 12.4831
LeftShoulder1  10.7894 -16.751 -46.4647
LeftArm  0.0765858 7.69178 -26.1976
LeftForeArm  36.4153 -40.0737 -7.10147
LeftHand  -0.25398 0.0180481 5.50724
RightShoulder  4.07436 11.2233 21.3469
RightArm  -39.8648 55.5369 21.358
RightForeArm  -7.69357 33.9993 8.01581
RightHand  -15.5264 30.5649 -47.4574
LeftUpLeg  -22.4761 1.24209 1.21923
LeftLeg  -3.76452 8.88079 -4.6838
LeftFoot  12.6829 -0.765844 3.23244
LeftToes  1.06247e-005 4.65855e-005 -8.18501e-006
887
root  -63.0632 40.9687 30.732 -167.049 -11.3476 179.33
RightUpLeg  -23.5616 -7.57863 -3.30067
RightLeg  5.09428 -12.7747 4.51392
RightFoot  5.89964 0.495159 -2.99714
RightToes  0.00048216 0.542163 -0.142577
Spine  43.3339 -1.44555 16.858
Spine1  17.1244 8.76137 -8.21583
HEad  -25.9513 -25.4587 12.7204
LeftShoulder1  10.7935 -16.8655 -46.2128
LeftArm  0.405652 7.32542 -26.3994
LeftForeArm  36.2566 -39.9866 -7.08571
LeftHand  -0.25398 0.0180481 5.50724
RightShoulder  3.9809 11.255 20.6063
RightArm  -42.8903 57.2359 18.0519
RightForeArm  -7.65825 31.6236 7.36484
RightHand  -15.7672 30.8769 -47.7334
LeftUpLeg  -22.8458 1.10819 1.03602
LeftLeg  -3.75743 9.08347 -4.74772
LeftFoot  12.61 -0.819863 3.49955
LeftToes  1.06247e-005 4.65855e-005 -8.18501e-006
888
root  -63.1171 40.9556 30.777 -166.733 -11.1926 179.233
RightUpLeg  -24.1068 -7.63158 -3.42008
RightLeg  5.36918 -12.6235 4.44281
RightFoot  5.91389 0.483803 -2.91926
RightToes  0.00048216 0.542163 -0.142577
Spine  43.6771 -1.57136 17.2163
Spine1  17.0594 9.10542 -8.84295
HEad  -26.616 -25.5495 13.4481
LeftShoulder1  10.669 -16.9045 -45.5709
LeftArm  0.34739 7.0488 -26.919
LeftForeArm  36.4808 -40.2679 -7.15452
LeftHand  -0.25398 0.0180481 5.50724
RightShoulder  3.96594 11.3319 20.3483
RightArm  -45.7665 58.4602 14.9419
RightForeArm  -6.96872 29.7783 6.85142
RightHand  -16.0625 31.2277 -48.1043
LeftUpLeg  -23.1969 1.13262 0.937249
LeftLeg  -3.75681 9.32316 -4.9108
LeftFoot  12.4357 -0.85136 3.67989
LeftToes  1.06247e-005 4.65855e-005 -8.18501e-006
889
root  -63.1882 40.9437 30.8054 -166.506 -11.0477 179.235
RightUpLeg  -24.5094 -7.6467 -3.48276
RightLeg  5.58916 -12.5757 4.38515
RightFoot  5.94938 0.468161 -2.80883
RightToes  0.00048216 0.542163 -0.142577
Spine  43.9459 -1.74253 17.5738
Spine1  16.9626 9.33166 -9.35346
HEad  -27.2679 -25.5369 14.2569
LeftShoulder1  10.5595 -16.8787 -45.1439
LeftArm  -0.0119917 6.80289 -27.1593
LeftForeArm  36.7036 -40.9093 -7.33126
LeftHand  -0.25398 0.0180481 5.50724
RightShoulder  3.95836 11.4159 20.1322
RightArm  -48.3379 59.3759 12.765
RightForeArm  -5.99081 28.6939 6.53162
RightHand  -16.1005 31.3224 -48.0914
LeftUpLeg  -23.4311 1.1231 0.8971
LeftLeg  -3.8037 9.46025 -4.98654
LeftFoot  12.4318 -0.788641 3.38386
LeftToes  1.06247e-005 4.65855e-005 -8.18501e-006
890
root  -63.2785 40.9325 30.8203 -166.428 -10.8945 179.21
RightUpLeg  -24.6937 -7.7164 -3.59234
RightLeg  5.73838 -12.385 4.34476
RightFoot  5.98531 0.450832 -2.68769
RightToes  0.00048216 0.542163 -0.142577
Spine  44.1398 -1.83515 17.7395
Spine1  16.8753 9.38094 -9.47032
HEad  -27.8009 -25.6347 14.7032
LeftShoulder1  10.5398 -16.8577 -45.1049
LeftArm  -0.53638 6.60995 -27.1019
LeftForeArm  36.5947 -41.7796 -7.60234
LeftHand  -0.25398 0.0180481 5.50724
RightShoulder  3.94159 11.4722 19.9047
RightArm  -50.2432 60.2103 11.269
RightForeArm  -5.73452 27.7556 6.29082
RightHand  -15.9226 31.1958 -47.7688
LeftUpLeg  -23.4594 0.960883 0.777899
LeftLeg  -3.92412 9.62453 -4.97257
LeftFoot  12.6414 -0.756759 3.19619
LeftToes  1.06247e-005 4.65855e-005 -8.18501e-006
891
root  -63.369 40.9287 30.8225 -166.528 -10.6033 179.152
RightUpLeg  -24.6371 -7.75845 -3.71424
RightLeg  5.75543 -11.9899 4.29908
RightFoot  6.05303 0.452439 -2.68441
RightToes  0.00048216 0.542163 -0.142577
Spine  44.3207 -1.74493 17.6837
Spine1  16.748 9.44614 -9.35858
HEad  -28.0172 -25.7187 14.8813
LeftShoulder1  10.5662 -16.8953 -45.1357
LeftArm  -1.11749 6.53477 -27.1687
LeftForeArm  36.4226 -42.6838 -7.89597
LeftHand  -0.25398 0.0180481 5.50724
RightShoulder  3.9401 11.452 19.9324
RightArm  -51.2326 60.9762 10.0358
RightForeArm  -6.39409 26.5116 6.02828
RightHand  -15.812 31.1026 -47.5843
LeftUpLeg  -23.3152 0.879879 0.62153
LeftLeg  -3.94535 9.91036 -5.03526
LeftFoot  12.7956 -0.885011 3.77064
LeftToes  1.06247e-005 4.65855e-005 -8.18501e-006
